<?xml version="1.0" encoding="UTF-8"?>
<svg xmlns="http://www.w3.org/2000/svg" xmlns:xlink="http://www.w3.org/1999/xlink" viewBox="0 0 50 50" width="50px" height="50px">
<g id="surface166111323">
<path style=" stroke:none;fill-rule:nonzero;fill:rgb(100%,100%,100%);fill-opacity:1;" d="M 25 4.6875 C 13.78125 4.6875 4.6875 13.78125 4.6875 25 C 4.6875 34.589844 11.335938 42.625 20.277344 44.753906 C 19.816406 44.644531 19.355469 44.519531 18.90625 44.378906 L 18.90625 39.726562 C 18.90625 39.726562 18.144531 39.980469 17.128906 39.980469 C 14.289062 39.980469 13.105469 37.445312 12.8125 36.171875 C 12.632812 35.394531 12.167969 34.660156 11.664062 34.210938 C 11.066406 33.675781 10.785156 33.675781 10.78125 33.492188 C 10.773438 33.109375 11.296875 33.125 11.542969 33.125 C 12.8125 33.125 13.773438 34.476562 14.222656 35.175781 C 15.328125 36.898438 16.515625 37.1875 17.128906 37.1875 C 17.890625 37.1875 18.546875 37.074219 19 36.855469 C 19.210938 35.378906 19.867188 34.066406 20.9375 33.125 C 16.175781 32.171875 12.8125 29.441406 12.8125 25 C 12.8125 22.710938 13.730469 20.609375 15.261719 18.914062 C 15.105469 18.46875 14.84375 17.574219 14.84375 16.113281 C 14.84375 15.148438 14.910156 13.964844 15.351562 12.8125 C 15.351562 12.8125 18.25 12.832031 20.980469 15.421875 C 22.242188 15.054688 23.589844 14.84375 25 14.84375 C 26.410156 14.84375 27.757812 15.054688 29.019531 15.421875 C 31.75 12.832031 34.648438 12.8125 34.648438 12.8125 C 35.089844 13.964844 35.15625 15.148438 35.15625 16.113281 C 35.15625 17.6875 34.945312 18.605469 34.820312 19 C 36.300781 20.683594 37.1875 22.753906 37.1875 25 C 37.1875 29.441406 33.824219 32.171875 29.0625 33.125 C 30.335938 34.242188 31.09375 35.871094 31.09375 37.695312 L 31.09375 44.378906 C 30.644531 44.523438 30.1875 44.644531 29.722656 44.753906 C 38.664062 42.625 45.3125 34.589844 45.3125 25 C 45.3125 13.78125 36.21875 4.6875 25 4.6875 Z M 26.417969 45.257812 C 25.949219 45.289062 25.476562 45.3125 25 45.3125 C 25.476562 45.3125 25.949219 45.289062 26.417969 45.257812 Z M 29.519531 44.800781 C 28.609375 45.007812 27.679688 45.152344 26.726562 45.234375 C 27.679688 45.152344 28.609375 45.007812 29.519531 44.800781 Z M 25 45.3125 C 24.523438 45.3125 24.050781 45.289062 23.582031 45.257812 C 24.050781 45.289062 24.523438 45.3125 25 45.3125 Z M 23.273438 45.234375 C 22.320312 45.152344 21.386719 45.007812 20.480469 44.800781 C 21.390625 45.007812 22.320312 45.152344 23.273438 45.234375 Z M 23.273438 45.234375 "/>
</g>
</svg>
